<svg width="30" height="30" viewBox="0 0 30 30" fill="none" xmlns="http://www.w3.org/2000/svg">
<path d="M2.5912 7.83249C2.83302 7.52499 3.15148 7.10874 3.40651 6.81124C4.17029 5.99124 4.2694 5.88374 4.96446 5.27749C5.1706 5.11749 5.41506 4.92499 5.65424 4.74374C3.89015 6.15624 3.66551 7.71999 5.28424 8.68624C5.2816 8.68624 5.2816 8.68625 5.2816 8.68875C7.54518 9.97874 12.5058 9.69999 16.4198 8.04749C20.2109 6.44749 21.6103 4.15874 19.7392 2.79874C18.0967 2.50749 16.1383 2.47374 14.0664 2.73624L13.851 2.39999L14.0294 1.84249C15.2477 1.73874 16.4053 1.76374 17.4043 1.92499C17.6461 1.96374 17.9645 2.02999 18.2024 2.07749C18.6622 2.18374 18.912 2.24749 19.2119 2.33874C19.5185 2.42499 19.7802 2.51124 20.236 2.67124C20.6827 2.83749 20.8756 2.91249 21.2337 3.08124C21.6347 3.25433 22.0244 3.4501 22.4005 3.66749C25.3816 5.44124 23.5277 8.67749 18.2671 10.895C13.0211 13.105 6.33609 13.4525 3.34044 11.7C3.33912 11.6975 3.33516 11.695 3.32723 11.6925H3.33251C1.6966 10.7125 1.52482 9.28999 2.5912 7.83249V7.83249ZM2.5912 7.83249C2.83302 7.52499 3.15148 7.10874 3.40651 6.81124C4.17029 5.99124 4.2694 5.88374 4.96446 5.27749C5.1706 5.11749 5.41506 4.92499 5.65424 4.74374C3.89015 6.15624 3.66551 7.71999 5.28424 8.68624C5.2816 8.68624 5.2816 8.68625 5.2816 8.68875C7.54518 9.97874 12.5058 9.69999 16.4198 8.04749C20.2109 6.44749 21.6103 4.15874 19.7392 2.79874C18.0967 2.50749 16.1383 2.47374 14.0664 2.73624L13.851 2.39999M2.5912 7.83249C2.83302 7.52499 3.15148 7.10874 3.40651 6.81124C4.17029 5.99124 4.2694 5.88374 4.96446 5.27749C5.1706 5.11749 5.41506 4.92499 5.65424 4.74374C3.89015 6.15624 3.66551 7.71999 5.28424 8.68624C5.2816 8.68624 5.2816 8.68625 5.2816 8.68875C7.54518 9.97874 12.5058 9.69999 16.4198 8.04749C20.2109 6.44749 21.6103 4.15874 19.7392 2.79874C18.0967 2.50749 16.1383 2.47374 14.0664 2.73624M2.5912 7.83249C2.83302 7.52499 3.15148 7.10874 3.40651 6.81124C4.17029 5.99124 4.2694 5.88374 4.96446 5.27749C5.1706 5.11749 5.41506 4.92499 5.65424 4.74374C3.89015 6.15624 3.66551 7.71999 5.28424 8.68624C5.2816 8.68624 5.2816 8.68625 5.2816 8.68875C7.54518 9.97874 12.5058 9.69999 16.4198 8.04749M2.5912 7.83249C2.83302 7.52499 3.15148 7.10874 3.40651 6.81124C4.17029 5.99124 4.2694 5.88374 4.96446 5.27749C5.1706 5.11749 5.41506 4.92499 5.65424 4.74374C3.89015 6.15624 3.66551 7.71999 5.28424 8.68624C5.2816 8.68624 5.2816 8.68625 5.2816 8.68875C7.54518 9.97874 12.5058 9.69999 16.4198 8.04749C20.2109 6.44749 21.6103 4.15874 19.7392 2.79874C18.0967 2.50749 16.1383 2.47374 14.0664 2.73624L13.851 2.39999L14.0294 1.84249C15.2477 1.73874 16.4053 1.76374 17.4043 1.92499C17.6461 1.96374 17.9645 2.02999 18.2024 2.07749C18.6622 2.18374 18.912 2.24749 19.2119 2.33874C19.5185 2.42499 19.7802 2.51124 20.236 2.67124C20.6827 2.83749 20.8756 2.91249 21.2337 3.08124C21.6347 3.25433 22.0244 3.4501 22.4005 3.66749C25.3816 5.44124 23.5277 8.67749 18.2671 10.895C13.0211 13.105 6.33609 13.4525 3.34044 11.7C3.33912 11.6975 3.33516 11.695 3.32723 11.6925H3.33251C1.6966 10.7125 1.52482 9.28999 2.5912 7.83249M2.5912 7.83249C2.83302 7.52499 3.15148 7.10874 3.40651 6.81124C4.17029 5.99124 4.2694 5.88374 4.96446 5.27749C5.1706 5.11749 5.41506 4.92499 5.65424 4.74374C3.89015 6.15624 3.66551 7.71999 5.28424 8.68624C5.2816 8.68624 5.2816 8.68625 5.2816 8.68875C7.54518 9.97874 12.5058 9.69999 16.4198 8.04749C20.2109 6.44749 21.6103 4.15874 19.7392 2.79874C18.0967 2.50749 16.1383 2.47374 14.0664 2.73624L13.851 2.39999L14.0294 1.84249C15.2477 1.73874 16.4053 1.76374 17.4043 1.92499C17.6461 1.96374 17.9645 2.02999 18.2024 2.07749C18.6622 2.18374 18.912 2.24749 19.2119 2.33874C19.5185 2.42499 19.7802 2.51124 20.236 2.67124C20.6827 2.83749 20.8756 2.91249 21.2337 3.08124C21.6347 3.25433 22.0244 3.4501 22.4005 3.66749C25.3816 5.44124 23.5277 8.67749 18.2671 10.895C13.0211 13.105 6.33609 13.4525 3.34044 11.7C3.33912 11.6975 3.33516 11.695 3.32723 11.6925H3.33251C1.6966 10.7125 1.52482 9.28999 2.5912 7.83249M2.5912 7.83249C2.83302 7.52499 3.15148 7.10874 3.40651 6.81124C4.17029 5.99124 4.2694 5.88374 4.96446 5.27749C5.1706 5.11749 5.41506 4.92499 5.65424 4.74374C3.89015 6.15624 3.66551 7.71999 5.28424 8.68624C5.2816 8.68624 5.2816 8.68625 5.2816 8.68875C7.54518 9.97874 12.5058 9.69999 16.4198 8.04749C20.2109 6.44749 21.6103 4.15874 19.7392 2.79874C18.0967 2.50749 16.1383 2.47374 14.0664 2.73624L13.851 2.39999L14.0294 1.84249C15.2477 1.73874 16.4053 1.76374 17.4043 1.92499C17.6461 1.96374 17.9645 2.02999 18.2024 2.07749C18.6622 2.18374 18.912 2.24749 19.2119 2.33874C19.5185 2.42499 19.7802 2.51124 20.236 2.67124C20.6827 2.83749 20.8756 2.91249 21.2337 3.08124C21.6347 3.25433 22.0244 3.4501 22.4005 3.66749C25.3816 5.44124 23.5277 8.67749 18.2671 10.895C13.0211 13.105 6.33609 13.4525 3.34044 11.7C3.33912 11.6975 3.33516 11.695 3.32723 11.6925H3.33251" fill="white"/>
<path d="M16.1978 18.24L16.2401 20.2325C10.7814 21.3925 4.77684 21.025 1.89484 19.33L1.88559 19.32C0.681782 18.6075 0.0831817 17.7038 0.0197538 16.7238C-0.0317813 15.1588 -0.00271022 14.4988 0.355393 12.67C0.24043 13.92 0.618354 15.07 2.14855 15.9613C2.1578 15.9713 2.18027 15.9813 2.18952 15.9913C4.89313 17.4975 9.75461 17.725 14.7007 16.665L16.1978 18.24Z" fill="white"/>
<path d="M2.97046 22.8675C6.76556 25.3188 15.5028 25.1625 22.4838 22.5138C27.0888 20.764 29.7793 18.3722 29.9884 16.239C29.9924 16.1806 29.9962 16.1226 30 16.065C29.998 16.1228 29.9941 16.1808 29.9884 16.239C29.9239 17.1976 29.8322 18.2714 29.4424 19.5463L29.2679 20.08C28.6469 21.8525 26.2815 23.7438 22.5327 25.165C16.1278 27.5963 8.10812 27.74 4.62487 25.49C3.93797 24.6989 3.38031 23.815 2.97046 22.8675Z" fill="white"/>
<path d="M11.4778 29.4987C7.98262 28.6137 7.29284 27.8125 7.07349 27.615C10.2687 29.1225 14.7972 29.4275 18.8737 28.515L19.2212 29.03L19.1948 29.4087C14.8011 30.33 12.4226 29.6962 11.4778 29.4987Z" fill="white"/>
<path d="M20.873 14.515L17.1612 11.8537L18.4654 11.3062L24.5597 13.755C24.5597 13.755 25.7345 13.3025 26.6357 13.0487C27.5369 12.7925 28.3192 13.1112 28.3192 13.1112C28.3192 13.1112 28.0443 13.8762 27.2422 14.3375C26.4388 14.7987 25.2971 15.3237 25.2971 15.3237L23.1432 21.245L21.835 21.795L22.2288 17.4062C22.2288 17.4062 22.3358 16.4862 21.5364 16.755C20.7409 17.03 18.7363 17.76 18.7363 17.76L18.0835 19.5687L17.099 19.9825L17.0858 17.8412L15.4103 16.465L16.3604 16.065L18.254 16.7337C18.254 16.7337 20.1713 15.8125 20.9179 15.4362C21.6672 15.0562 20.873 14.515 20.873 14.515Z" fill="white"/>
<path d="M11.8279 5.3325L9.30797 3.43375C9.30797 3.43375 8.69615 3.50125 8.2363 3.51C7.78041 3.51875 7.45667 3.27125 7.45667 3.27125C7.45667 3.27125 7.68923 2.94875 8.13059 2.83125C8.57062 2.7125 9.17847 2.6075 9.17847 2.6075L11.002 0.09625L11.6944 0L10.9042 2.01C10.9042 2.01 10.7272 2.42875 11.1394 2.39875C11.5491 2.36625 12.5904 2.27375 12.5904 2.27375L13.1837 1.52875L13.6845 1.46L13.3753 2.43875L13.962 3.32125L13.444 3.39375L12.6749 2.8125C12.6749 2.8125 11.6522 3.01 11.2478 3.095C10.8461 3.17875 11.1447 3.53125 11.1447 3.53125L12.5164 5.235L11.8279 5.3325Z" fill="white"/>
<path d="M20.1317 27.025L21.7623 27.8312C21.7623 27.8312 22.0953 27.73 22.353 27.6787C22.6093 27.625 22.8168 27.7325 22.8168 27.7325C22.8168 27.7325 22.7243 27.9375 22.4904 28.0487C22.2565 28.16 21.9301 28.2812 21.9301 28.2812L21.1915 29.8762L20.8149 30L21.0302 28.7937C21.0302 28.7937 21.0818 28.5412 20.8545 28.6C20.6259 28.6575 20.0524 28.8187 20.0524 28.8187L19.841 29.2725L19.5582 29.365L19.5952 28.8062L19.2159 28.4237L19.4868 28.3312L19.9427 28.5237C19.9427 28.5237 20.4951 28.3087 20.7118 28.2212C20.9285 28.1325 20.7224 27.9662 20.7224 27.9662L19.7564 27.1487L20.1317 27.025Z" fill="white"/>
</svg>
